<?xml version="1.0" encoding="UTF-8" standalone="no"?>
<svg
   xmlns:dc="http://purl.org/dc/elements/1.1/"
   xmlns:cc="http://creativecommons.org/ns#"
   xmlns:rdf="http://www.w3.org/1999/02/22-rdf-syntax-ns#"
   xmlns:svg="http://www.w3.org/2000/svg"
   xmlns="http://www.w3.org/2000/svg"
   xmlns:sodipodi="http://sodipodi.sourceforge.net/DTD/sodipodi-0.dtd"
   xmlns:inkscape="http://www.inkscape.org/namespaces/inkscape"
   inkscape:version="1.0 (4035a4f, 2020-05-01)"
   sodipodi:docname="tow-truck.svg"
   version="1.1"
   data-name="Layer 1"
   width="512"
   viewBox="0 0 512 512"
   height="512"
   id="Layer_1">
  <metadata
     id="metadata844">
    <rdf:RDF>
      <cc:Work
         rdf:about="">
        <dc:format>image/svg+xml</dc:format>
        <dc:type
           rdf:resource="http://purl.org/dc/dcmitype/StillImage" />
      </cc:Work>
    </rdf:RDF>
  </metadata>
  <defs
     id="defs842" />
  <sodipodi:namedview
     inkscape:current-layer="Layer_1"
     inkscape:window-maximized="1"
     inkscape:window-y="23"
     inkscape:window-x="0"
     inkscape:cy="250.73068"
     inkscape:cx="177.46934"
     inkscape:zoom="1.5911659"
     showgrid="false"
     id="namedview840"
     inkscape:window-height="925"
     inkscape:window-width="1680"
     inkscape:pageshadow="2"
     inkscape:pageopacity="0"
     guidetolerance="10"
     gridtolerance="10"
     objecttolerance="10"
     borderopacity="1"
     bordercolor="#666666"
     pagecolor="#ffffff"
     inkscape:document-rotation="0" />
  <path
     id="path833"
     d="m 470.5918,75.71875 c -8.73526,-0.188805 -16.37511,5.458359 -19.97461,9.583984 l -0.0801,0.0918 c -0.938,1.12 -1.95775,2.351735 -3.05273,3.677735 -3.74901,4.528005 -8.43396,10.199424 -13.75196,16.638674 l -2.31054,2.80078 c -3.30001,4.014 -6.82119,8.28147 -10.49219,12.73047 l -5.54297,6.7207 c -0.058,0.071 -0.11492,0.1438 -0.16992,0.2168 -5.136,6.225 -10.486,12.70079 -15.875,19.21679 -0.059,0.071 -0.11492,0.1438 -0.16992,0.2168 l -1.27344,1.53711 c -4.892,5.913 -9.80505,11.85034 -14.62305,17.65234 -5.554,6.7 -10.97675,13.21504 -16.09375,19.33204 -5.533,6.625 -10.59975,12.64359 -15.09375,17.93359 -21.14297,4.07414 -37.26008,21.29583 -39.92578,42.66211 h -73.3125 c -0.043,-17.589 -0.044,-40.95205 0,-71.12305 0.01,-11.05256 -8.94744,-20.01758 -20,-20.01758 h -87.98047 c -9.13424,-0.01 -17.11088,6.1791 -19.37109,15.0293 L 93.492188,240.78125 52.0625,264.85156 c -11.072246,6.46122 -17.889903,18.30739 -17.914062,31.12696 v 28.3496 h -2.300782 c -7.645184,0.009 -13.840578,6.20443 -13.849609,13.84961 v 32.22071 c 0.01166,7.64251 6.207093,13.83357 13.849609,13.83984 h 36.046875 c 8.147179,24.82932 32.133179,40.93887 58.199219,39.08594 26.06603,-1.85292 47.53491,-21.19366 52.08789,-46.92578 h 54.6875 c 3.31371,0 6,-2.68629 6,-6 v -13.61133 h 71.42383 l -0.006,0.0117 h 0.11523 0.18164 0.26172 0.57032 1.04882 c 0.0429,10e-4 0.0861,-0.01 0.12891,-0.008 0.0106,7e-4 0.0208,0.007 0.0312,0.008 h 0.49414 c 0.13859,0 0.2775,-0.005 0.41602,0 0.10233,0.003 0.20445,0.0124 0.30664,0.0195 0.10047,-0.005 0.0774,-0.004 0.29882,-0.0156 0.0929,-0.005 0.16168,0.0174 0.2129,0.0488 0.013,7.9e-4 0.0261,-0.001 0.0391,0.004 0.0159,-9.9e-4 0.0216,-0.0117 0.0391,-0.0117 h 0.35742 1.66406 0.0215 0.25586 0.49609 c 0.0376,0.002 0.0849,-0.006 0.12696,-0.004 0.002,9e-5 0.002,0.004 0.004,0.004 h 0.68164 c 0.0529,0 0.0805,0.0207 0.11914,0.0332 0.0376,-0.0132 0.0662,-0.0332 0.11914,-0.0332 h 4.66016 0.62109 c 0.0641,0 0.11099,0.014 0.15039,0.0332 0.039,-0.0128 0.0674,-0.0332 0.1211,-0.0332 h 0.0644 l 14.82422,-27.51367 h 8.11133 c -14.50276,16.89371 -17.84079,40.6849 -8.54492,60.91601 9.29587,20.23109 29.52224,33.19532 51.78711,33.19532 22.26488,0 42.49124,-12.96423 51.78711,-33.19532 9.29586,-20.23111 5.95979,-44.0223 -8.54297,-60.91601 h 8.57617 l 23.66015,43.91601 c 1.04683,1.94315 3.07602,3.15466 5.28321,3.1543 h 28.79883 c 3.31371,0 6,-2.68629 6,-6 v -33.61133 c 0,-3.31219 -2.68391,-5.99785 -5.9961,-6 H 481.4375 v -38.83984 c -1.1e-4,-1.7118 -0.73138,-3.34205 -2.00977,-4.48047 l -44.06054,-39.22266 c -1.09855,-0.97749 -2.51781,-1.51752 -3.98828,-1.51757 h -20.88477 c -0.83573,-7.03141 -3.19024,-13.79705 -6.90039,-19.82813 3.271,-4.674 7.52269,-10.78539 11.42969,-16.40039 l 3.85937,-5.56836 c 3.449,-4.973 7.1575,-10.31966 10.97657,-15.84766 4.843,-6.973 9.8747,-14.2455 14.8457,-21.4375 l 2.11328,-3.05859 c 4.377,-6.325 8.67975,-12.54339 12.71875,-18.40039 3.537,-5.115 6.8743,-9.94603 9.9043,-14.33203 v 45.5 c -0.047,4.04008 -2.47996,7.6696 -6.19922,9.24805 -12.3399,5.60747 -19.28197,18.89258 -16.83789,32.2246 2.44408,13.33207 13.64728,23.29071 27.17382,24.15626 0.62134,0.038 1.23881,0.0566 1.85547,0.0566 8.28725,0.0145 16.1969,-3.46418 21.78711,-9.58204 5.40449,-5.89841 -3.44316,-14.00583 -8.84765,-8.10742 -3.58614,3.916 -8.75368,5.99594 -14.05274,5.65625 -8.77239,-0.65071 -15.73961,-7.6379 -16.36523,-16.41211 -0.47886,-7.27021 3.60714,-14.07346 10.25,-17.0664 7.97736,-3.55614 13.14786,-11.4382 13.23242,-20.17188 v -62.8789 c 2.256,-3.26999 3.63017,-5.27282 3.70117,-5.38282 0.055,-0.081 0.10525,-0.16309 0.15625,-0.24609 7.611,-12.718127 3.55795,-24.83711 -4.12304,-29.78711 -3.57694,-2.301187 -7.16194,-3.269869 -10.58008,-3.34375 z m -1.16407,12.066406 c 1.69864,-0.120453 3.48811,0.230938 5.25586,1.367188 3.716,2.394 3.10025,8.776827 0.40625,13.392576 l -6.39453,9.26172 c 0.008,0.008 0.0178,0.01 -0.004,0.006 l -6.40235,9.27148 -0.004,0.006 -0.004,0.008 c -0.004,0.006 -0.006,0.006 -0.0137,0.0195 l -0.002,-0.002 c -7.6e-4,0.001 0.001,0.003 -0.002,0.004 l -0.002,0.002 0.002,0.002 c -2.249,3.258 -4.71761,6.83062 -7.34961,10.64062 l -0.0351,-0.0586 c -0.008,0.0109 -0.0124,0.0213 -0.0215,0.0332 -0.0229,0.03 -0.0592,0.0672 -0.084,0.0977 -0.0377,0.0466 -0.0408,0.0529 -0.0762,0.10351 -0.0129,0.0198 -0.0256,0.0413 -0.0391,0.0606 -0.0222,0.0316 -0.0548,0.0721 -0.0781,0.10352 -0.0331,0.0446 -0.0653,0.0897 -0.0977,0.13476 -0.048,0.0929 -0.11007,0.18657 -0.20703,0.2832 -0.0485,0.0483 -0.0912,0.10122 -0.13867,0.1504 -4.13998,6.05328 -11.95192,17.52194 -14.04688,20.54687 l -7.47265,10.80078 c -2.46,3.55733 -4.914,7.10272 -7.36133,10.63672 l -7.48242,10.79297 c -2.538,3.667 -4.99928,7.22202 -7.36328,10.6289 -2.455,3.529 -12.42791,17.88546 -14.64454,21.06446 -0.31499,-0.305 -0.6399,-0.60039 -0.96289,-0.90039 l -2.13281,-3.50391 c -0.2708,0.0937 -0.63435,0.073 -1.05273,-0.17773 -0.68431,-0.41016 -1.27107,-0.9656 -1.81836,-1.54102 -0.23387,-0.24589 -0.4325,-0.52178 -0.66211,-0.77148 -0.58251,-0.28027 -1.05869,-0.72637 -1.59766,-1.07227 -0.1391,-0.0893 -0.29439,-0.15167 -0.4375,-0.23437 -0.16126,-0.0932 -0.31812,-0.19507 -0.47656,-0.29297 -0.96984,-0.34532 -1.92247,-0.80059 -2.9375,-1.00196 -1.3006,-0.25802 -1.21276,-1.46192 -0.17969,-1.53906 0.14758,-0.011 0.31312,6.6e-4 0.49805,0.041 0.01,0.002 0.0194,0.006 0.0293,0.008 -0.0823,-0.0589 -0.16634,-0.11505 -0.25,-0.17187 -0.0117,-0.008 -0.0383,-0.0202 -0.0547,-0.0293 -0.53946,-0.0815 -1.0293,-0.36385 -1.54688,-0.51367 -0.27786,-0.0803 -0.43606,-0.0953 -0.60742,-0.10547 -1.22536,-0.12912 -0.95489,-0.0156 -1.60156,-0.45508 -0.7676,0.12541 -1.54333,0.0603 -2.31641,0.0508 -0.4858,-0.0475 -0.99316,0.0515 -1.47656,0.0117 -0.58973,-0.0783 -0.83137,-0.16275 -1.16797,-0.29688 -0.0699,0.0174 -0.14806,0.029 -0.32031,0.0352 -0.13394,0.0654 -0.27841,0.0735 -0.44336,0.004 -0.15379,-4.1e-4 -0.37493,0.0135 -0.42188,0.0117 0.01,-0.11935 0.0357,-0.24506 0.0625,-0.3711 -0.11993,-0.21726 -0.14277,-0.49625 -0.13671,-0.79492 -0.0259,0.0319 -0.0559,0.0583 -0.0937,0.0703 -0.0352,0.0111 -0.073,0.009 -0.10938,0.0137 0.0884,0.24726 0.16878,0.49602 0.22266,0.75391 0.0226,0.10826 -0.0865,0.0914 -0.22852,0.041 l 0.24414,0.40039 c -1.85876,-0.4856 -3.74407,-0.86318 -5.64648,-1.13086 0.93707,-1.11413 7.11478,-8.39085 8.10937,-9.57422 v -0.002 l 0.002,-0.002 v -0.002 l 0.002,-0.002 v -0.002 l 0.002,-0.004 v -0.002 l 0.002,-0.002 v -0.004 l 0.002,-0.004 v -0.004 c 0.75861,-1.28979 1.72756,-2.53505 2.98047,-3.39062 l -0.0937,-0.1543 c 2.60318,-3.11742 13.35705,-16.06587 16.08984,-19.35352 l -0.33789,0.47461 c 0.0142,-0.0127 -1.2e-4,-0.003 0.0703,-0.0684 0.1243,-0.13262 0.0672,-0.0617 0.17188,-0.20898 0.0496,-0.0698 0.10364,-0.10065 0.15625,-0.125 l -0.0508,-0.0859 c 2.62407,-3.16205 8.296,-9.65679 10.99218,-12.91211 0.0111,-0.0132 0.0143,-0.03 0.0274,-0.043 0.015,-0.0149 0.031,-0.0338 0.0508,-0.0488 0.002,-0.003 0.007,-0.009 0.01,-0.0117 7.9e-4,-6.2e-4 0.003,6.2e-4 0.004,0 0.001,-9.1e-4 -8.7e-4,-0.003 0.002,-0.004 5e-4,-0.001 -4e-4,-0.002 0.002,-0.004 v -0.004 c 0.41745,-0.65086 0.93691,-1.2311 1.47656,-1.7832 v -0.002 c 0.003,-0.004 0.0104,-0.0136 0.0137,-0.0176 l 0.0312,-0.0371 c 0.74782,-0.94641 1.46704,-1.92709 2.27539,-2.82618 -0.76354,0.9483 -1.7279,2.16163 -2.27539,2.82618 l 2.47266,-2.8418 c 0.0283,-0.0649 0.0496,-0.13311 0.0879,-0.19336 0.063,-0.0992 0.0938,-0.1248 0.16797,-0.2207 0.0261,-0.0337 0.0511,-0.0691 0.0762,-0.10352 0.043,-0.051 0.0806,-0.10593 0.11914,-0.16016 -0.016,0.0152 -0.0331,0.0295 -0.0488,0.0449 -0.18868,0.18542 -0.36358,0.38413 -0.54101,0.58007 3.02849,-3.75913 7.00125,-8.76181 9.08789,-11.28906 l 4.99414,-5.63867 0.65039,-0.83399 c 0.0453,-0.0854 0.0936,-0.16949 0.14062,-0.2539 0.23477,-0.3033 0.26569,-0.36183 0.53711,-0.61719 l 4.58789,-5.88867 c 1.74934,-2.12 3.46144,-4.19589 5.13477,-6.22656 l 8.02148,-9.74024 c 0.0153,-0.0262 -0.252,0.32004 -0.43554,0.55664 0.0203,-0.0232 0.0368,-0.0493 0.0605,-0.0703 0.011,-0.01 0.0635,-0.0541 0.0781,-0.0684 0.008,-0.008 0.0164,-0.0164 0.0234,-0.0254 0.008,-0.0112 0.0144,-0.0226 0.0234,-0.0332 0.0159,-0.0193 0.0321,-0.038 0.0488,-0.0566 0.0613,-0.0682 0.0682,-0.0735 0.11133,-0.11914 0.007,-0.007 0.008,-0.009 0.0176,-0.0195 0.0112,-0.012 0.0225,-0.0105 0.0293,-0.008 h 0.002 c 0.0299,-0.0667 0.0516,-0.1307 0.10351,-0.1875 0.002,-0.002 0.009,-0.004 0.0117,-0.006 l -0.0195,-0.0293 c 2.82457,-3.4116 13.43316,-16.227558 16.0625,-19.408207 l 0.006,0.0078 c 10e-4,-0.0012 0.001,0.0052 0.0605,-0.08398 0.0115,-0.01677 0.0234,-0.03377 0.0352,-0.05078 -0.0427,0.05169 -0.0866,0.10451 -0.10351,0.125 h -0.002 c 0.0342,-0.04026 0.07,-0.08252 0.10547,-0.125 l 0.002,-0.002 c 0.007,-0.0097 0.013,-0.01974 0.0195,-0.0293 0.0161,-0.02356 0.0335,-0.0321 0.0508,-0.04297 l 0.0488,-0.06836 v -0.002 c 0.37688,-0.413024 4.6495,-5.017631 9.74414,-5.378907 z m -43.82617,46.984374 -0.52344,0.67383 c 0.0202,-0.0219 0.0387,-0.0451 0.0586,-0.0664 0.006,-0.008 0.0116,-0.0135 0.0176,-0.0215 0.009,-0.0112 0.0174,-0.024 0.0254,-0.0352 0.018,-0.0241 0.0489,-0.0631 0.0664,-0.084 0.0191,-0.0227 0.12032,-0.13795 0.13282,-0.15235 0.0721,-0.0902 0.0861,-0.10666 0.15625,-0.19726 0.0235,-0.0303 0.0442,-0.0601 0.0684,-0.0898 0.0285,-0.0349 0.0596,-0.0679 0.0898,-0.10157 0.003,-0.005 0.004,-0.01 0.008,-0.0137 -0.0279,0.0228 -0.0556,0.0457 -0.082,0.0703 -0.009,0.008 -0.009,0.01 -0.0176,0.0176 z m -0.67773,0.87109 c -0.004,0.008 -0.01,0.0154 -0.0137,0.0234 -0.0595,0.11487 -0.0736,0.1398 -0.0957,0.17969 l 0.0664,-0.0762 c 0.005,-0.008 0.009,-0.0154 0.0137,-0.0234 0.0137,-0.0255 0.0293,-0.0595 0.041,-0.0859 0.008,-0.0153 0.0135,-0.0297 0.0215,-0.0449 0.0151,-0.03 0.0278,-0.0463 0.0391,-0.0644 z m -0.10938,0.20313 -0.54101,0.63086 c 0.0916,-0.0995 0.19501,-0.18776 0.29101,-0.2832 l 0.006,-0.006 c 0.004,-0.005 0.002,-0.003 0.006,-0.008 0.12945,-0.17685 0.0949,-0.12591 0.21289,-0.28515 0.007,-0.0123 0.0194,-0.038 0.0254,-0.0488 z m -48.5625,58.26172 -0.40234,0.74609 c 0.0339,-0.0301 0.0681,-0.0541 0.10156,-0.0762 0.072,-0.21493 0.16606,-0.43553 0.30078,-0.66992 z m 34.15821,1.97265 -0.0293,-0.0488 c -0.16405,0.23007 -0.3453,0.4471 -0.51367,0.67382 z m 7.36328,-10.6289 -0.15821,-0.25977 c -0.35165,0.74124 -0.52085,1.19224 0.15821,0.25977 z m -0.15821,-0.25977 c 0.005,-0.01 0.0109,-0.0214 0.0156,-0.0312 -0.006,0.008 -0.0134,0.0154 -0.0195,0.0234 z m 15.00196,-21.16992 -0.0137,-0.0215 c -0.002,0.005 -0.003,0.01 -0.01,0.0254 -0.003,0.007 -0.007,0.0125 -0.01,0.0195 -0.004,0.008 -0.009,0.0164 -0.0137,0.0234 -0.005,0.007 -0.01,0.0125 -0.0156,0.0195 0.0288,-0.0341 0.0251,-0.0195 0.0625,-0.0664 z m 26.375,-69.865233 -0.0391,0.05469 c 0.0133,-0.0172 0.0278,-0.03349 0.041,-0.05078 -4.6e-4,-0.0016 -0.002,-0.0023 -0.002,-0.0039 z m -1.67383,2.613281 c -10e-4,0.0013 -0.003,0.0026 -0.004,0.0039 0.004,-8.52e-4 0.008,-0.0011 0.0117,-0.002 0.003,-6.19e-4 -0.006,-0.0015 -0.008,-0.002 z m -13.86914,16.166012 c 0.007,0.004 0.01,0.0132 0.008,0.0273 0.002,-0.003 0.004,-0.005 0.006,-0.008 z m -2.89844,3.74414 c -0.008,0.003 -0.0157,0.005 -0.0234,0.008 l -0.002,0.002 c 0.004,0.001 0.004,0.003 0.01,0.004 0.003,10e-6 0.003,-0.002 0.006,-0.002 0.003,-0.004 0.007,-0.008 0.01,-0.0117 z m -0.17383,0.16211 c -0.001,0.002 -0.003,0.004 -0.004,0.006 -0.002,0.005 -0.004,0.0105 -0.006,0.0156 0.004,-0.003 0.008,-0.006 0.0117,-0.01 -3e-4,-0.004 -0.002,-0.007 -0.002,-0.0117 z m -1.37109,1.65821 c -0.008,0.0111 -0.017,0.0221 -0.0254,0.0332 0.0115,-0.0136 0.0163,-0.0182 0.0273,-0.0312 z m 0.041,1.07422 c -0.003,0.003 -0.005,0.007 -0.008,0.01 0.002,3e-5 0.004,-1e-5 0.006,0 7.8e-4,-0.003 -0.001,-0.007 0.002,-0.01 z m -2.62891,3.61328 c -0.0259,0.0304 -0.0436,0.0429 -0.0723,0.0781 -0.0249,0.0306 -0.0417,0.0665 -0.0664,0.0977 0.0311,-0.0314 0.0636,-0.0623 0.0937,-0.0937 0.0151,-0.0273 0.0308,-0.0542 0.0449,-0.082 z m 1.02344,0.54492 c -0.0125,0.005 -0.0252,0.0127 -0.0371,0.0176 l -0.006,0.006 c 0.006,0.009 0.0127,0.0188 0.0195,0.0273 0.008,-0.017 0.0158,-0.0338 0.0234,-0.0508 z m -10.91602,9.94141 c -0.26003,0.27574 -0.5065,0.56368 -0.71289,0.88671 0.0162,-0.0182 0.0324,-0.0362 0.0488,-0.0547 0.021,-0.0249 0.0437,-0.0491 0.0644,-0.0742 0.0183,-0.0222 0.0341,-0.0465 0.0527,-0.0684 0.0208,-0.0245 0.043,-0.0483 0.0645,-0.0723 0.003,-0.003 0.007,-0.006 0.01,-0.01 0.0365,-0.0537 0.0608,-0.11518 0.10157,-0.16602 0.0324,-0.0403 0.0651,-0.0806 0.10156,-0.11719 0.01,-0.01 0.0215,-0.0166 0.0312,-0.0254 0.004,-0.006 0.007,-0.0118 0.01,-0.0176 0.044,-0.0644 0.0969,-0.12154 0.14648,-0.18164 0.018,-0.0188 0.0374,-0.0353 0.0547,-0.0547 0.008,-0.009 0.0122,-0.0166 0.0176,-0.0234 0.003,-0.007 0.007,-0.0142 0.01,-0.0215 z m 26.50586,0.32226 c -0.0658,0.09 -0.13147,0.18003 -0.19531,0.27148 z M 425.75,134.73242 c -10e-6,8.3e-4 -2e-5,0.003 0,0.004 l 0.002,-0.002 z m -0.10938,0.11524 c -0.0201,0.0251 -0.0387,0.0503 -0.0586,0.0762 -0.006,0.008 -0.008,0.0104 -0.0137,0.0176 0.0191,-0.0173 0.0379,-0.035 0.0566,-0.0527 0.004,-0.014 0.009,-0.0278 0.0156,-0.041 z m -0.54296,0.66406 c -0.009,0.01 -0.0192,0.0187 -0.0274,0.0293 -0.005,0.007 -0.006,0.0102 -0.01,0.0156 l 0.0312,-0.0352 c 0.002,-0.003 0.004,-0.007 0.006,-0.01 z m -4.375,5.32031 c -0.023,0.0245 -0.0285,0.0309 -0.0508,0.0547 0.0177,-0.0136 0.0352,-0.0274 0.0527,-0.041 -4.7e-4,-0.004 6.7e-4,-0.009 0,-0.0137 z m -0.81055,0.86133 c -0.0301,0.0317 -0.25506,0.27296 -0.24805,0.26562 0.0751,-0.0785 0.15312,-0.15423 0.22852,-0.23242 0.007,-0.0107 0.0125,-0.0225 0.0195,-0.0332 z m -13.48047,16.44141 c -0.0181,0.002 -0.0404,0.006 -0.0586,0.008 -0.002,0.0171 0.009,0.0149 0.0352,0.01 l 0.002,-0.002 c 0.007,-0.009 0.0144,-0.008 0.0215,-0.0156 z m -1.43945,1.9082 -0.0254,0.0352 c 0.008,-0.0102 0.0146,-0.0167 0.0234,-0.0273 8.5e-4,-0.003 -0.001,-0.005 0.002,-0.008 z m -0.0684,0.10937 c 0.003,-0.003 -0.005,-0.001 -0.0117,0.004 l -0.008,0.01 c 0.006,-0.005 0.0135,-0.009 0.0195,-0.0137 z m -274.15625,7.43555 c 0.0326,-2e-4 0.065,-2e-4 0.0976,0 h 87.97852 c 4.41828,0 8,3.58172 8,8 -0.047,33.745 -0.0385,58.9832 0.0215,77.1582 v 17.11914 c 0,3.31371 2.68629,6 6,6 3.31371,0 6,-2.68629 6,-6 v -11.13671 h 190.22852 l 40.34375,35.9121 v 22.6875 h -50.50977 c -17.80786,-10.45316 -39.87768,-10.45316 -57.68554,0 H 238.86914 v -28.32031 c 0,-3.31371 -2.68629,-6 -6,-6 -3.31371,0 -6,2.68629 -6,6 v 34.32031 c 0,3.31372 2.68629,6 6,6 h 92.22266 l -8.32618,15.45899 h -83.90039 c -3.31371,0 -6,2.68629 -6,6 v 13.61133 h -47.85546 c -0.76173,-20.26753 -12.21555,-38.61058 -30.0918,-48.19141 v -65.31836 h 62.41015 c 3.31371,0 6.00002,-2.68629 6,-6 v -61.76172 c 0,-3.31371 -2.68628,-6 -6,-6 h -73.2207 c -2.73566,4e-4 -5.12467,1.85121 -5.80859,4.5 l -15.91016,61.76172 c -0.98074,3.79839 1.88759,7.5007 5.81055,7.5 h 14.71875 v 60.55274 c -18.77484,-5.04123 -38.824678,-0.18569 -53.212892,12.88671 h -16.21875 c -3.313711,0 -6,2.68629 -6,6 0,3.31372 2.686289,6 6,6 h 6.205078 c -5.656688,9.03738 -8.645777,19.4887 -8.623047,30.1504 0.0065,1.92388 0.109488,3.8462 0.308594,5.75976 H 31.847656 c -1.018298,0.001 -1.845663,-0.82155 -1.849609,-1.83984 v -32.22071 c 0.0013,-1.02097 0.828644,-1.84829 1.849609,-1.84961 h 17.638672 c 3.313711,0 6,-2.68628 6,-6 0,-3.31371 -2.686289,-6 -6,-6 h -3.33789 v -28.3496 c 0.01608,-8.54673 4.561461,-16.44448 11.943359,-20.75196 l 43.599613,-25.33008 c 1.39276,-0.80753 2.40212,-2.14138 2.80078,-3.70117 l 18.62695,-72.60742 c 0.89719,-3.50086 4.03464,-5.96211 7.64844,-6 z m 11.99023,21.53906 h 26.57031 v 49.76172 h -39.38867 z m 38.57031,0 h 24 v 49.76172 h -24 z m 194.29493,6.15039 -0.0449,0.0859 c 0.0217,0.0165 0.0462,0.0292 0.0684,0.0449 0.015,-0.022 0.0323,-0.0422 0.0469,-0.0644 -0.0243,-0.0211 -0.0449,-0.0466 -0.0703,-0.0664 z m -3.53125,6.62891 c -0.008,0.022 -0.0186,0.042 -0.0254,0.0644 l 0.0273,-0.0527 c -10e-4,-0.004 0.001,-0.008 -0.002,-0.0117 z m 7.41797,2.67773 c 0.0375,0.0268 0.0821,0.0445 0.12304,0.0684 -0.0145,-0.009 -0.0165,-0.01 -0.0312,-0.0195 -0.0292,-0.0184 -0.11825,-0.0688 -0.0918,-0.0488 z m 10.4375,3.6836 c -0.27737,0.0779 -0.60284,0.10436 -0.96485,0.0644 0.12029,0.0917 0.24069,0.18322 0.36719,0.26563 0.16291,0.10612 0.33892,0.1919 0.5,0.30078 0.14572,0.0985 0.28022,0.21345 0.41992,0.32031 0.26279,0.29151 0.52407,0.58903 0.79102,0.87891 z m -28.52539,6.92383 c 11.86594,0.0268 23.01856,5.67009 30.06835,15.21484 3.58337,4.80348 5.94848,10.40428 6.89258,16.32227 h -18.56445 c -5.80569,-17.93426 -31.17869,-17.93426 -36.98438,0 H 324.2832 c 2.67543,-16.29016 15.65063,-28.93754 32.00391,-31.19532 h 0.002 c 1.70109,-0.23133 3.41602,-0.34553 5.13282,-0.34179 z m -0.23438,30.08593 h 0.002 c 1.6317,-0.0304 3.22762,0.47985 4.53907,1.45118 h -8.80079 c 1.23468,-0.91451 2.72357,-1.42173 4.25977,-1.45118 z m -238.92969,76.21094 c 6.27482,0.0254 12.47507,1.36194 18.20313,3.92383 16.16609,7.27052 26.57047,23.34065 26.58789,41.06641 0,1.16501 -0.0459,2.32784 -0.13086,3.46484 -2.41532,31.22497 -35.20085,50.49123 -63.6543,37.40625 -28.453202,-13.08499 -35.164888,-50.51483 -13.031248,-72.67188 8.489935,-8.49007 20.018808,-13.23816 32.025388,-13.18945 z m 267.9336,0.002 c 24.80313,0.0607 44.8777,20.18509 44.87695,44.98829 -0.002,34.25139 -36.75219,55.93939 -66.73633,39.38476 -29.98414,-16.55462 -31.20942,-59.20964 -2.22461,-77.45898 l 0.0117,-0.008 v 0.006 c 7.20805,-4.53619 15.55567,-6.93312 24.07227,-6.91211 z m 65.33398,7.83789 h 13.91211 v 25.82032 z m 25.91211,13.45899 h 12.20117 v 21.61133 H 481.4375 Z m -171.51758,14.73828 c -0.0102,0.004 -0.0154,0.006 -0.0312,0.0117 0.003,0.001 0.005,0.003 0.008,0.004 0.017,-0.007 0.0157,-0.007 0.0352,-0.0156 -0.004,-1e-5 -0.008,10e-6 -0.0117,0 z m 13.36524,0.30078 c 0.0203,0.008 0.048,0.009 0.0644,0.0195 5.5e-4,-0.006 0.002,-0.0118 0.002,-0.0176 -0.0182,-1.8e-4 -0.0482,-0.002 -0.0664,-0.002 z m -12.9668,0.42383 c -0.0144,10e-4 -0.0286,0.003 -0.043,0.004 -0.002,0.003 -0.004,0.008 -0.006,0.0117 0.0164,8.8e-4 0.0288,-0.001 0.0449,0.002 10e-4,-0.005 0.002,-0.0104 0.004,-0.0156 z m 9.57031,0.19336 -0.0801,0.006 c 0.033,0.005 0.0622,0.008 0.0801,-0.006 z m -10.64844,0.29883 -0.0273,0.0488 c 0.0293,-0.0201 0.0477,-0.0304 0.0742,-0.0488 z m 13.54102,0.15234 c 0.002,5.3e-4 0.005,-0.001 0.008,0.002 l 0.002,-0.002 c -0.003,4.1e-4 -0.007,-4.2e-4 -0.01,0 z" />
  <path
     d="m 387.1319,359.68056 c -3.87941,2.68307 -8.20934,4.81017 -11.63823,8.04922 -0.83804,0.79165 -0.48338,2.26883 -0.50476,3.42146 -0.0676,3.64472 0.92985,7.99345 4.04497,10.30697 0.86429,0.64188 1.98895,0.82469 2.98342,1.23704 7.36458,-0.0169 15.18862,-4.92749 17.96486,-11.80727 0.95461,-2.3656 1.34532,-4.54249 -0.0261,-6.87487 -0.59317,-1.00885 -1.66918,-1.64084 -2.50377,-2.46126 0,0 -9.9625,6.15132 -9.9625,6.15132 v 0 c 0.71995,0.6327 1.65732,1.08195 2.15985,1.8981 1.19361,1.93853 0.68437,4.05472 -0.23336,5.94687 -0.55801,1.15048 -3.44477,3.20978 -2.16688,3.16535 2.68605,-0.0934 5.01244,-1.99497 7.3364,-3.34509 0.84645,-0.49174 -1.89556,0.48989 -2.84334,0.73483 -0.90834,-0.2315 -1.92269,-0.2098 -2.72501,-0.69451 -1.99532,-1.20545 -2.97719,-3.48598 -3.38607,-5.6526 -0.22785,-1.20741 -0.26383,-2.46361 -0.12209,-3.68412 0.12208,-1.0511 1.94972,-3.20112 0.9034,-3.04324 -3.20343,0.48337 -5.83435,2.81831 -8.75152,4.22746 0,0 9.47069,-7.57566 9.47069,-7.57566 z"
     id="path848"
     style="fill:#000000;fill-opacity:0" />
  <path
     d="m 363.90158,381.22222 c 1.1473,0.55386 2.21106,1.33283 3.4419,1.66159 6.30847,1.68502 11.61944,-5.16719 16.01348,-7.98742 0,0 -10.74907,4.42285 -10.74907,4.42285 v 0 c 17.01663,-7.26725 6.95169,-2.19508 4.43247,-2.77646 -1.18759,-0.27407 -2.09584,-1.24475 -3.14376,-1.86713 0,0 -9.99502,6.54657 -9.99502,6.54657 z"
     id="path850"
     style="fill:#000000;fill-opacity:0" />
  <path
     d="m 377.34021,360.1953 c 0.47565,9.0616 -0.11461,18.12826 -0.99176,27.14596 -0.0145,0.75142 -0.029,1.50284 -0.0435,2.25426 0,0 10.62968,-5.44088 10.62968,-5.44088 v 0 c -0.0411,-0.68725 -0.0822,-1.3745 -0.1233,-2.06175 0.2538,-9.14641 0.53122,-18.30269 1.36298,-27.41787 0,0 -10.83414,5.52028 -10.83414,5.52028 z"
     id="path852"
     style="fill:#000000;fill-opacity:0" />
  <path
     d="m 401.4002,383.49671 c 0.0414,-4.86982 -0.0165,-2.14375 0.23013,-8.17681 0,0 -10.09298,5.04944 -10.09298,5.04944 v 0 c -0.66426,6.30662 -0.35973,3.43427 -0.91166,8.61725 0,0 10.77451,-5.48988 10.77451,-5.48988 z"
     id="path854"
     style="fill:#000000;fill-opacity:0" />
  <rect
     ry="15.956079"
     y="357.07443"
     x="349.61813"
     height="31.912157"
     width="41.007568"
     id="rect860"
     style="fill:#000000;fill-opacity:0" />
  <path
     d="m 303.39453,363.85938 v 1.34374 h 9.6582 v -1.11914 c -0.21135,0.006 -0.34294,0.0111 -0.67578,0.0215 -0.3227,-0.0165 -0.64604,-0.0322 -0.96875,-0.0488 -0.18489,-0.01 -0.26994,-0.10346 -0.27539,-0.19726 z"
     style="fill:#000000;fill-opacity:0"
     id="rect1062" />
</svg>
